<mxfile modified="2024-02-28T22:31:38.568Z" host="Electron" agent="Mozilla/5.0 (X11; Linux x86_64) AppleWebKit/537.36 (KHTML, like Gecko) draw.io/23.1.5 Chrome/120.0.6099.109 Electron/28.1.0 Safari/537.36" etag="QRNV4Aj-KzAx8ljGu236" version="23.1.5" type="device">
  <diagram id="C2fSY1v2SiZeoUbDoYyL" name="Page-1">
    <mxGraphModel dx="1420" dy="945" grid="1" gridSize="10" guides="1" tooltips="1" connect="1" arrows="1" fold="1" page="1" pageScale="1" pageWidth="1169" pageHeight="827" background="#ffffff" math="0" shadow="0">
      <root>
        <mxCell id="0" />
        <mxCell id="1" parent="0" />
        <mxCell id="Ea1ENNUEdhevqqWlFtUx-8" style="edgeStyle=orthogonalEdgeStyle;rounded=0;orthogonalLoop=1;jettySize=auto;html=1;entryX=0;entryY=0.5;entryDx=0;entryDy=0;fillColor=#1ba1e2;strokeColor=#006EAF;strokeWidth=5;" parent="1" source="3ne1QswCM8ZiEu4GHsYG-9" target="Ea1ENNUEdhevqqWlFtUx-5" edge="1">
          <mxGeometry relative="1" as="geometry" />
        </mxCell>
        <mxCell id="3ne1QswCM8ZiEu4GHsYG-9" value="Your Station&#39;s&#xa;Stream Encoder&#xa;(Icecast source client)" style="shape=image;verticalLabelPosition=bottom;verticalAlign=top;aspect=fixed;image=data:image/svg+xml,PHN2ZyB4bWxucz0iaHR0cDovL3d3dy53My5vcmcvMjAwMC9zdmciIHhtbG5zOnhsaW5rPSJodHRwOi8vd3d3LnczLm9yZy8xOTk5L3hsaW5rIiB2ZXJzaW9uPSIxLjEiIGlkPSJMYXllcl8xIiB4PSIwcHgiIHk9IjBweCIgd2lkdGg9IjQ4cHgiIGhlaWdodD0iNDhweCIgdmlld0JveD0iMCAwIDQ4IDQ4IiBlbmFibGUtYmFja2dyb3VuZD0ibmV3IDAgMCA0OCA0OCIgeG1sOnNwYWNlPSJwcmVzZXJ2ZSI+JiN4YTs8ZyBpZD0iY29sb3JfMzdfIj4mI3hhOwk8Zz4mI3hhOwkJPHBhdGggZmlsbD0iI0ZGREE4RSIgZD0iTTM0LDhMMTMsMThjMCwwLDAsOS4xNDYsMCwxMmMwLDAuMDc2LDAuMDE3LDAuMTQ4LDAuMDQ0LDAuMjE4QzEzLjE0NiwzMC42NjIsMTMuNTI1LDMxLDE0LDMxbDQuMzAzLDEuNzE0ICAgIEMxOC40ODMsMzIuODksMTguNzI5LDMzLDE5LDMzYzAuNTUzLDAsMS0wLjQ0NywxLTFjMC0wLjIsMC0xMCwwLTEwbDIxLTExTDM0LDh6Ii8+JiN4YTsJPC9nPiYjeGE7PC9nPiYjeGE7PGcgaWQ9Im91cmxpbmUiPiYjeGE7CTxnPiYjeGE7CQk8cGF0aCBmaWxsPSIjMzg0RDY4IiBkPSJNNDUuNDI3LDEyLjEwNGwwLjAwMy0wLjAwN2wtMjEtMTBDMjQuNDMsMi4wOTcsMjQuMzEzLDIsMjQsMnMtMC40MywwLjA5Ny0wLjQzLDAuMDk3bC0yMSwxMCAgICBjMCwwLDAuMDAxLDAuMDA0LDAuMDAyLDAuMDA1QzIuNDkzLDEyLjEzNiwyLDEyLjQwNCwyLDEzdjIyYzAsMC4zOTcsMC4yMzYsMC43MzUsMC41NzMsMC44OTZMMi41NywzNS45MDJsMjEsMTBsMC4wMDMtMC4wMDYgICAgQzIzLjcwNCw0NS45NTksMjMuODQ2LDQ2LDI0LDQ2czAuMjk2LTAuMDQxLDAuNDI3LTAuMTA0bDAuMDAzLDAuMDA2bDIxLTEwbC0wLjAwMy0wLjAwNkM0NS43NjQsMzUuNzM1LDQ2LDM1LjM5Nyw0NiwzNVYxMyAgICBDNDYsMTIuNzgxLDQ1Ljg3MiwxMi4zMTYsNDUuNDI3LDEyLjEwNHogTTM1LjAyNCw5LjM1N0wxNSwxOC42OTd2OS44MjZsLTMtMS4yVjE3bDE5LjczNi05LjIwOUwzNS4wMjQsOS4zNTd6IE0yNCw0LjEwNyAgICBsNS4zNzQsMi41NkwxMC43LDE1LjU1OUw1LjMyNiwxM0wyNCw0LjEwN3ogTTIzLDQzLjQxNkw0LDM0LjM2OFYxNC41ODRsNiwyLjg1N1YyOGMwLDAuNDIxLDAuMjYyLDAuNzc3LDAuNjMsMC45MjVsLTAuMDAxLDAuMDA0ICAgIGw0Ljk4MSwxLjk5MkMxNS4zODgsMzAuODI3LDE1Ljc1NSwzMSwxNiwzMWMwLjU1MywwLDEtMC40NDcsMS0xdi05LjIyNmw2LDIuODU3VjQzLjQxNnogTTI0LDIxLjg5M2wtNS40NzUtMi42MDdsMTguODQtOC44MTMgICAgTDQyLjY3NCwxM0wyNCwyMS44OTN6IE00NCwzNC4zNjhsLTE5LDkuMDQ4VjIzLjYzMmwxOS05LjA0OFYzNC4zNjh6Ii8+JiN4YTsJPC9nPiYjeGE7PC9nPiYjeGE7PC9zdmc+;fontSize=14;fontColor=#3399FF;" parent="1" vertex="1">
          <mxGeometry x="140" y="227.00000000000023" width="48" height="48" as="geometry" />
        </mxCell>
        <mxCell id="Ea1ENNUEdhevqqWlFtUx-9" style="edgeStyle=orthogonalEdgeStyle;rounded=0;orthogonalLoop=1;jettySize=auto;html=1;entryX=0;entryY=0.5;entryDx=0;entryDy=0;" parent="1" source="Ea1ENNUEdhevqqWlFtUx-1" target="3ne1QswCM8ZiEu4GHsYG-9" edge="1">
          <mxGeometry relative="1" as="geometry" />
        </mxCell>
        <mxCell id="Ea1ENNUEdhevqqWlFtUx-40" value="" style="edgeStyle=orthogonalEdgeStyle;rounded=0;orthogonalLoop=1;jettySize=auto;html=1;strokeWidth=5;fontSize=14;fillColor=#1ba1e2;strokeColor=#006EAF;" parent="1" source="Ea1ENNUEdhevqqWlFtUx-1" target="3ne1QswCM8ZiEu4GHsYG-9" edge="1">
          <mxGeometry relative="1" as="geometry" />
        </mxCell>
        <mxCell id="Ea1ENNUEdhevqqWlFtUx-1" value="Your Station&#39;s&lt;br style=&quot;font-size: 14px;&quot;&gt;Audio" style="shape=mxgraph.cisco.computers_and_peripherals.microphone;html=1;pointerEvents=1;dashed=0;fillColor=#036897;strokeColor=#ffffff;strokeWidth=2;verticalLabelPosition=bottom;verticalAlign=top;align=center;outlineConnect=0;fontSize=14;fontColor=#3399FF;" parent="1" vertex="1">
          <mxGeometry x="10" y="212" width="80" height="79" as="geometry" />
        </mxCell>
        <mxCell id="Ea1ENNUEdhevqqWlFtUx-11" style="edgeStyle=orthogonalEdgeStyle;rounded=0;orthogonalLoop=1;jettySize=auto;html=1;entryX=0;entryY=0.5;entryDx=0;entryDy=0;strokeWidth=5;fillColor=#1ba1e2;strokeColor=#006EAF;" parent="1" source="Ea1ENNUEdhevqqWlFtUx-5" target="Ea1ENNUEdhevqqWlFtUx-10" edge="1">
          <mxGeometry relative="1" as="geometry" />
        </mxCell>
        <mxCell id="Ea1ENNUEdhevqqWlFtUx-5" value="Your Studio&lt;br style=&quot;font-size: 14px;&quot;&gt;Internet Router" style="image;html=1;image=img/lib/clip_art/networking/Router_Icon_128x128.png;fontSize=14;fontColor=#3399FF;labelBackgroundColor=none;" parent="1" vertex="1">
          <mxGeometry x="250" y="211" width="80" height="80" as="geometry" />
        </mxCell>
        <mxCell id="Ea1ENNUEdhevqqWlFtUx-10" value="Pacifica Icecast Server in the Internet" style="image;html=1;image=img/lib/clip_art/networking/Cloud_Server_128x128.png;shadow=0;dashed=0;fontFamily=Helvetica;fontSize=14;fontColor=#3399FF;align=center;strokeColor=default;fillColor=default;labelBackgroundColor=none;" parent="1" vertex="1">
          <mxGeometry x="430" y="157.87" width="297.22" height="187.25" as="geometry" />
        </mxCell>
        <mxCell id="Ea1ENNUEdhevqqWlFtUx-12" value="" style="aspect=fixed;perimeter=ellipsePerimeter;html=1;align=center;shadow=0;dashed=0;fontColor=#4277BB;labelBackgroundColor=#ffffff;fontSize=12;spacingTop=3;image;image=img/lib/ibm/blockchain/event_listener.svg;" parent="1" vertex="1">
          <mxGeometry x="880" y="120" width="60" height="60" as="geometry" />
        </mxCell>
        <mxCell id="Ea1ENNUEdhevqqWlFtUx-13" value="" style="aspect=fixed;perimeter=ellipsePerimeter;html=1;align=center;shadow=0;dashed=0;fontColor=#4277BB;labelBackgroundColor=#ffffff;fontSize=12;spacingTop=3;image;image=img/lib/ibm/blockchain/event_listener.svg;" parent="1" vertex="1">
          <mxGeometry x="899.5" y="30" width="60" height="60" as="geometry" />
        </mxCell>
        <mxCell id="Ea1ENNUEdhevqqWlFtUx-14" value="" style="aspect=fixed;perimeter=ellipsePerimeter;html=1;align=center;shadow=0;dashed=0;fontColor=#4277BB;labelBackgroundColor=#ffffff;fontSize=12;spacingTop=3;image;image=img/lib/ibm/blockchain/event_listener.svg;" parent="1" vertex="1">
          <mxGeometry x="780" y="20" width="60" height="60" as="geometry" />
        </mxCell>
        <mxCell id="Ea1ENNUEdhevqqWlFtUx-15" value="" style="aspect=fixed;perimeter=ellipsePerimeter;html=1;align=center;shadow=0;dashed=0;fontColor=#4277BB;labelBackgroundColor=#ffffff;fontSize=12;spacingTop=3;image;image=img/lib/ibm/blockchain/event_listener.svg;" parent="1" vertex="1">
          <mxGeometry x="983.5" y="152" width="60" height="60" as="geometry" />
        </mxCell>
        <mxCell id="Ea1ENNUEdhevqqWlFtUx-16" value="" style="aspect=fixed;perimeter=ellipsePerimeter;html=1;align=center;shadow=0;dashed=0;fontColor=#4277BB;labelBackgroundColor=#ffffff;fontSize=12;spacingTop=3;image;image=img/lib/ibm/blockchain/event_listener.svg;" parent="1" vertex="1">
          <mxGeometry x="910" y="231" width="60" height="60" as="geometry" />
        </mxCell>
        <mxCell id="Ea1ENNUEdhevqqWlFtUx-17" value="" style="aspect=fixed;perimeter=ellipsePerimeter;html=1;align=center;shadow=0;dashed=0;fontColor=#4277BB;labelBackgroundColor=#ffffff;fontSize=12;spacingTop=3;image;image=img/lib/ibm/blockchain/event_listener.svg;" parent="1" vertex="1">
          <mxGeometry x="1010" y="300" width="60" height="60" as="geometry" />
        </mxCell>
        <mxCell id="Ea1ENNUEdhevqqWlFtUx-18" value="" style="aspect=fixed;perimeter=ellipsePerimeter;html=1;align=center;shadow=0;dashed=0;fontColor=#4277BB;labelBackgroundColor=#ffffff;fontSize=12;spacingTop=3;image;image=img/lib/ibm/blockchain/event_listener.svg;" parent="1" vertex="1">
          <mxGeometry x="940" y="370" width="60" height="60" as="geometry" />
        </mxCell>
        <mxCell id="Ea1ENNUEdhevqqWlFtUx-19" value="" style="aspect=fixed;perimeter=ellipsePerimeter;html=1;align=center;shadow=0;dashed=0;fontColor=#4277BB;labelBackgroundColor=#ffffff;fontSize=12;spacingTop=3;image;image=img/lib/ibm/blockchain/event_listener.svg;" parent="1" vertex="1">
          <mxGeometry x="910" y="450" width="60" height="60" as="geometry" />
        </mxCell>
        <mxCell id="Ea1ENNUEdhevqqWlFtUx-25" value="" style="endArrow=classic;html=1;rounded=0;strokeWidth=5;fillColor=#1ba1e2;strokeColor=#006EAF;" parent="1" source="Ea1ENNUEdhevqqWlFtUx-10" target="Ea1ENNUEdhevqqWlFtUx-14" edge="1">
          <mxGeometry width="50" height="50" relative="1" as="geometry">
            <mxPoint x="560" y="110" as="sourcePoint" />
            <mxPoint x="610" y="60" as="targetPoint" />
          </mxGeometry>
        </mxCell>
        <mxCell id="Ea1ENNUEdhevqqWlFtUx-26" value="" style="endArrow=classic;html=1;rounded=0;strokeWidth=5;fillColor=#1ba1e2;strokeColor=#006EAF;" parent="1" source="Ea1ENNUEdhevqqWlFtUx-10" target="Ea1ENNUEdhevqqWlFtUx-13" edge="1">
          <mxGeometry width="50" height="50" relative="1" as="geometry">
            <mxPoint x="578.6100000000001" y="167.3800000000001" as="sourcePoint" />
            <mxPoint x="792.5809639476267" y="72.17359691951856" as="targetPoint" />
          </mxGeometry>
        </mxCell>
        <mxCell id="Ea1ENNUEdhevqqWlFtUx-28" value="" style="endArrow=classic;html=1;rounded=0;strokeWidth=5;fillColor=#1ba1e2;strokeColor=#006EAF;" parent="1" source="Ea1ENNUEdhevqqWlFtUx-10" target="Ea1ENNUEdhevqqWlFtUx-12" edge="1">
          <mxGeometry width="50" height="50" relative="1" as="geometry">
            <mxPoint x="645.2079127257957" y="177.30762319595988" as="sourcePoint" />
            <mxPoint x="911.3089979892327" y="80.2599905277284" as="targetPoint" />
          </mxGeometry>
        </mxCell>
        <mxCell id="Ea1ENNUEdhevqqWlFtUx-30" value="" style="endArrow=classic;html=1;rounded=0;strokeWidth=5;fillColor=#1ba1e2;strokeColor=#006EAF;" parent="1" source="Ea1ENNUEdhevqqWlFtUx-10" target="Ea1ENNUEdhevqqWlFtUx-15" edge="1">
          <mxGeometry width="50" height="50" relative="1" as="geometry">
            <mxPoint x="683.8288601299093" y="194.8877432967463" as="sourcePoint" />
            <mxPoint x="890.3065688704037" y="164.27786719663663" as="targetPoint" />
          </mxGeometry>
        </mxCell>
        <mxCell id="Ea1ENNUEdhevqqWlFtUx-31" value="" style="endArrow=classic;html=1;rounded=0;strokeWidth=5;fillColor=#1ba1e2;strokeColor=#006EAF;" parent="1" source="Ea1ENNUEdhevqqWlFtUx-10" target="Ea1ENNUEdhevqqWlFtUx-16" edge="1">
          <mxGeometry width="50" height="50" relative="1" as="geometry">
            <mxPoint x="711.8836101764327" y="219.5821211613793" as="sourcePoint" />
            <mxPoint x="993.6124220356996" y="194.59474149529296" as="targetPoint" />
          </mxGeometry>
        </mxCell>
        <mxCell id="Ea1ENNUEdhevqqWlFtUx-32" value="" style="endArrow=classic;html=1;rounded=0;strokeWidth=5;fillColor=#1ba1e2;strokeColor=#006EAF;" parent="1" source="Ea1ENNUEdhevqqWlFtUx-10" target="Ea1ENNUEdhevqqWlFtUx-17" edge="1">
          <mxGeometry width="50" height="50" relative="1" as="geometry">
            <mxPoint x="727.2199999999993" y="261.0050000000001" as="sourcePoint" />
            <mxPoint x="920.0246226843599" y="269.7847820007173" as="targetPoint" />
          </mxGeometry>
        </mxCell>
        <mxCell id="Ea1ENNUEdhevqqWlFtUx-33" value="" style="endArrow=classic;html=1;rounded=0;strokeWidth=5;fillColor=#1ba1e2;strokeColor=#006EAF;" parent="1" source="Ea1ENNUEdhevqqWlFtUx-10" target="Ea1ENNUEdhevqqWlFtUx-18" edge="1">
          <mxGeometry width="50" height="50" relative="1" as="geometry">
            <mxPoint x="711.8836101764327" y="302.4278788386209" as="sourcePoint" />
            <mxPoint x="1020.1781473753636" y="336.73547767126774" as="targetPoint" />
          </mxGeometry>
        </mxCell>
        <mxCell id="Ea1ENNUEdhevqqWlFtUx-34" value="" style="endArrow=classic;html=1;rounded=0;strokeWidth=5;fillColor=#1ba1e2;strokeColor=#006EAF;" parent="1" source="Ea1ENNUEdhevqqWlFtUx-10" target="Ea1ENNUEdhevqqWlFtUx-19" edge="1">
          <mxGeometry width="50" height="50" relative="1" as="geometry">
            <mxPoint x="683.8288601299093" y="327.1222567032539" as="sourcePoint" />
            <mxPoint x="951.088872443537" y="401.99083628503377" as="targetPoint" />
          </mxGeometry>
        </mxCell>
        <mxCell id="Ea1ENNUEdhevqqWlFtUx-37" value="Online Listening Fans" style="text;html=1;align=center;verticalAlign=middle;resizable=0;points=[];autosize=1;strokeColor=none;fillColor=none;fontStyle=1;fontSize=22;fontColor=#3399FF;" parent="1" vertex="1">
          <mxGeometry x="635" y="440" width="250" height="40" as="geometry" />
        </mxCell>
      </root>
    </mxGraphModel>
  </diagram>
</mxfile>
